<svg viewBox="0 0 560 340" fill="none" xmlns="http://www.w3.org/2000/svg">
  <!-- Dashboard preview/mockup illustration -->

  <!-- Window frame -->
  <rect x="0" y="0" width="560" height="340" rx="10" fill="none" stroke="#6366f1" stroke-width="1" stroke-opacity="0.25" />

  <!-- Title bar -->
  <rect x="1" y="1" width="558" height="28" rx="10" fill="#6366f1" fill-opacity="0.1" />

  <!-- Window dots -->
  <circle cx="16" cy="15" r="4" fill="#ef4444" fill-opacity="0.5" />
  <circle cx="30" cy="15" r="4" fill="#eab308" fill-opacity="0.5" />
  <circle cx="44" cy="15" r="4" fill="#22c55e" fill-opacity="0.5" />

  <!-- Sidebar -->
  <rect x="1" y="29" width="119" height="310" fill="#e2e8f0" fill-opacity="0.04" />
  <line x1="120" y1="29" x2="120" y2="340" stroke="#e2e8f0" stroke-opacity="0.1" stroke-width="0.5" />

  <!-- Sidebar items -->
  <rect x="16" y="50" width="88" height="8" rx="3" fill="#6366f1" fill-opacity="0.2" />
  <rect x="16" y="72" width="70" height="6" rx="3" fill="#e2e8f0" fill-opacity="0.1" />
  <rect x="16" y="90" width="80" height="6" rx="3" fill="#e2e8f0" fill-opacity="0.1" />
  <rect x="16" y="108" width="60" height="6" rx="3" fill="#e2e8f0" fill-opacity="0.1" />
  <rect x="16" y="126" width="75" height="6" rx="3" fill="#e2e8f0" fill-opacity="0.1" />
  <rect x="16" y="144" width="65" height="6" rx="3" fill="#e2e8f0" fill-opacity="0.1" />

  <!-- Metric card 1 -->
  <rect x="140" y="46" width="120" height="60" rx="6" fill="none" stroke="#e2e8f0" stroke-width="0.5" stroke-opacity="0.15" />
  <rect x="152" y="58" width="50" height="4" rx="2" fill="#e2e8f0" fill-opacity="0.15" />
  <rect x="152" y="74" width="70" height="8" rx="3" fill="#10b981" fill-opacity="0.4" />
  <rect x="152" y="90" width="40" height="3" rx="1.5" fill="#e2e8f0" fill-opacity="0.1" />

  <!-- Metric card 2 -->
  <rect x="272" y="46" width="120" height="60" rx="6" fill="none" stroke="#e2e8f0" stroke-width="0.5" stroke-opacity="0.15" />
  <rect x="284" y="58" width="50" height="4" rx="2" fill="#e2e8f0" fill-opacity="0.15" />
  <rect x="284" y="74" width="60" height="8" rx="3" fill="#6366f1" fill-opacity="0.4" />
  <rect x="284" y="90" width="35" height="3" rx="1.5" fill="#e2e8f0" fill-opacity="0.1" />

  <!-- Metric card 3 -->
  <rect x="404" y="46" width="120" height="60" rx="6" fill="none" stroke="#e2e8f0" stroke-width="0.5" stroke-opacity="0.15" />
  <rect x="416" y="58" width="55" height="4" rx="2" fill="#e2e8f0" fill-opacity="0.15" />
  <rect x="416" y="74" width="65" height="8" rx="3" fill="#8b5cf6" fill-opacity="0.4" />
  <rect x="416" y="90" width="45" height="3" rx="1.5" fill="#e2e8f0" fill-opacity="0.1" />

  <!-- Chart area -->
  <rect x="140" y="126" width="395" height="140" rx="6" fill="none" stroke="#e2e8f0" stroke-width="0.5" stroke-opacity="0.12" />
  <rect x="152" y="138" width="80" height="5" rx="2" fill="#e2e8f0" fill-opacity="0.15" />

  <!-- Grid lines -->
  <line x1="152" y1="160" x2="523" y2="160" stroke="#e2e8f0" stroke-width="0.3" stroke-opacity="0.08" />
  <line x1="152" y1="185" x2="523" y2="185" stroke="#e2e8f0" stroke-width="0.3" stroke-opacity="0.08" />
  <line x1="152" y1="210" x2="523" y2="210" stroke="#e2e8f0" stroke-width="0.3" stroke-opacity="0.08" />
  <line x1="152" y1="235" x2="523" y2="235" stroke="#e2e8f0" stroke-width="0.3" stroke-opacity="0.08" />

  <!-- Chart line -->
  <polyline points="170,220 210,205 250,210 290,180 330,190 370,170 410,175 450,160 490,168 515,162"
    stroke="#6366f1" stroke-width="2" fill="none" opacity="0.6" stroke-linecap="round" stroke-linejoin="round" />

  <!-- Area fill -->
  <polygon points="170,220 210,205 250,210 290,180 330,190 370,170 410,175 450,160 490,168 515,162 515,245 170,245"
    fill="#6366f1" fill-opacity="0.08" />

  <!-- Data dots -->
  <circle cx="290" cy="180" r="3" fill="#6366f1" fill-opacity="0.7" />
  <circle cx="410" cy="175" r="3" fill="#6366f1" fill-opacity="0.7" />
  <circle cx="515" cy="162" r="3" fill="#06b6d4" fill-opacity="0.8" />

  <!-- Table area -->
  <rect x="140" y="280" width="395" height="44" rx="6" fill="none" stroke="#e2e8f0" stroke-width="0.5" stroke-opacity="0.12" />
  <rect x="152" y="290" width="60" height="4" rx="2" fill="#e2e8f0" fill-opacity="0.12" />
  <rect x="240" y="290" width="40" height="4" rx="2" fill="#e2e8f0" fill-opacity="0.08" />
  <rect x="340" y="290" width="50" height="4" rx="2" fill="#10b981" fill-opacity="0.3" />
  <rect x="450" y="290" width="60" height="4" rx="2" fill="#e2e8f0" fill-opacity="0.08" />

  <rect x="152" y="306" width="55" height="4" rx="2" fill="#e2e8f0" fill-opacity="0.12" />
  <rect x="240" y="306" width="35" height="4" rx="2" fill="#e2e8f0" fill-opacity="0.08" />
  <rect x="340" y="306" width="45" height="4" rx="2" fill="#ef4444" fill-opacity="0.25" />
  <rect x="450" y="306" width="55" height="4" rx="2" fill="#e2e8f0" fill-opacity="0.08" />
</svg>
